<?xml version="1.0" standalone="no"?><!DOCTYPE svg PUBLIC "-//W3C//DTD SVG 1.1//EN"
        "http://www.w3.org/Graphics/SVG/1.1/DTD/svg11.dtd">
<svg t="1730184034647" class="icon" viewBox="0 0 1024 1024" version="1.1" xmlns="http://www.w3.org/2000/svg"
     p-id="17584" width="200" height="200">
    <path d="M942.004009 541.080316L82.058412 541.080316c-15.809057 0-28.719088-13.003152-28.719088-29.063943 0-16.061814 12.911054-29.097712 28.719088-29.097712l859.945597 0c15.809057 0 28.656667 13.034874 28.656667 29.097712C970.660676 528.077164 957.81409 541.080316 942.004009 541.080316L942.004009 541.080316zM942.004009 541.080316L82.058412 541.080316c-15.809057 0-28.719088-13.003152-28.719088-29.063943 0-16.061814 12.911054-29.097712 28.719088-29.097712l859.945597 0c15.809057 0 28.656667 13.034874 28.656667 29.097712C970.660676 528.077164 957.81409 541.080316 942.004009 541.080316L942.004009 541.080316zM942.004009 863.568101L82.058412 863.568101c-15.809057 0-28.719088-13.005198-28.719088-29.065989 0-16.061814 12.911054-29.098735 28.719088-29.098735l859.945597 0c15.809057 0 28.656667 13.035898 28.656667 29.098735C970.660676 850.562902 957.81409 863.568101 942.004009 863.568101L942.004009 863.568101zM942.004009 863.568101L82.058412 863.568101c-15.809057 0-28.719088-13.005198-28.719088-29.065989 0-16.061814 12.911054-29.098735 28.719088-29.098735l859.945597 0c15.809057 0 28.656667 13.035898 28.656667 29.098735C970.660676 850.562902 957.81409 863.568101 942.004009 863.568101L942.004009 863.568101zM942.004009 218.594577L82.058412 218.594577c-15.809057 0-28.719088-13.004175-28.719088-29.064966 0-16.061814 12.911054-29.098735 28.719088-29.098735l859.945597 0c15.809057 0 28.656667 13.035898 28.656667 29.098735C970.660676 205.590402 957.81409 218.594577 942.004009 218.594577L942.004009 218.594577zM942.004009 218.594577L82.058412 218.594577c-15.809057 0-28.719088-13.004175-28.719088-29.064966 0-16.061814 12.911054-29.098735 28.719088-29.098735l859.945597 0c15.809057 0 28.656667 13.035898 28.656667 29.098735C970.660676 205.590402 957.81409 218.594577 942.004009 218.594577L942.004009 218.594577z"
          fill="#272636" p-id="17585"></path>
</svg>